<?xml version="1.0" standalone="no"?>
<!DOCTYPE svg PUBLIC "-//W3C//DTD SVG 20010904//EN"
 "http://www.w3.org/TR/2001/REC-SVG-20010904/DTD/svg10.dtd">
<svg version="1.0" xmlns="http://www.w3.org/2000/svg"
 width="512.000000pt" height="512.000000pt" viewBox="0 0 512.000000 512.000000"
 preserveAspectRatio="xMidYMid meet">
<metadata>
Created by potrace 1.14, written by Peter Selinger 2001-2017
</metadata>
<g transform="translate(0.000000,512.000000) scale(0.100000,-0.100000)"
fill="#000000" stroke="none">
<path d="M2360 5114 c-258 -29 -407 -60 -600 -124 -389 -128 -724 -334 -1010
-620 -399 -399 -644 -896 -731 -1485 -18 -120 -18 -530 0 -650 87 -589 332
-1086 731 -1485 399 -399 896 -644 1485 -731 120 -18 530 -18 650 0 589 87
1086 332 1485 731 399 399 644 896 731 1485 18 120 18 530 0 650 -87 589 -332
1086 -731 1485 -391 391 -878 635 -1447 725 -93 15 -484 28 -563 19z m880
-1058 c236 -36 338 -68 390 -121 32 -33 35 -41 38 -108 5 -111 -37 -172 -125
-184 l-41 -5 -6 -72 c-11 -114 -94 -678 -122 -831 -167 -906 -445 -1457 -825
-1635 -98 -45 -180 -63 -299 -63 -181 0 -304 45 -405 147 -142 143 -184 335
-128 580 45 200 174 394 372 558 190 158 421 294 691 406 l165 69 12 74 c25
150 101 804 94 811 -14 15 -374 27 -531 18 -223 -13 -328 -29 -444 -70 -224
-77 -300 -250 -201 -459 57 -120 42 -183 -59 -246 -42 -25 -59 -30 -116 -30
-88 0 -127 26 -174 115 -52 99 -69 177 -69 310 0 181 47 313 154 433 153 172
409 266 869 321 90 11 659 -3 760 -18z"/>
<path d="M2820 2412 c-87 -39 -249 -131 -325 -186 -262 -186 -384 -379 -388
-612 -1 -79 2 -97 24 -140 62 -121 220 -130 347 -19 124 108 225 297 307 573
40 138 97 379 93 397 -2 8 -20 4 -58 -13z"/>
</g>
</svg>
