<?xml version="1.0" standalone="no"?>
<!DOCTYPE svg PUBLIC "-//W3C//DTD SVG 20010904//EN"
 "http://www.w3.org/TR/2001/REC-SVG-20010904/DTD/svg10.dtd">
<svg version="1.0" xmlns="http://www.w3.org/2000/svg"
 width="700.000000pt" height="700.000000pt" viewBox="0 0 700.000000 700.000000"
 preserveAspectRatio="xMidYMid meet">
<metadata>
Created by potrace 1.14, written by Peter Selinger 2001-2017
</metadata>
<g transform="translate(0.000000,700.000000) scale(0.100000,-0.100000)"
fill="#000000" stroke="none">
<path d="M1185 6990 c-50 -8 -85 -14 -140 -26 -46 -9 -155 -44 -200 -64 -22
-10 -62 -27 -88 -39 -101 -44 -251 -152 -358 -260 -215 -214 -340 -464 -387
-771 -4 -25 -7 -1080 -7 -2345 0 -2572 -6 -2345 71 -2572 68 -201 161 -349
319 -509 203 -205 415 -319 708 -379 l112 -24 2275 0 c2322 0 2299 0 2463 34
138 28 393 143 480 216 7 5 30 23 51 40 70 53 158 141 231 230 95 115 197 324
240 489 14 54 17 71 35 175 5 28 8 1083 7 2350 -2 2164 -4 2304 -20 2370 -10
39 -20 79 -22 89 -24 106 -104 284 -184 406 -69 106 -259 298 -361 365 -150
99 -323 171 -510 213 -69 15 -266 17 -2370 18 -1262 1 -2317 -2 -2345 -6z"/>
</g>
</svg>
